<svg width="756" height="302" xmlns="http://www.w3.org/2000/svg" xmlns:xlink="http://www.w3.org/1999/xlink" overflow="hidden"><defs><clipPath id="clip0"><rect x="0" y="0" width="756" height="302"/></clipPath></defs><g clip-path="url(#clip0)"><rect x="0" y="0" width="756" height="301.601" fill="#FFFFFF"/><text fill="#1F2328" font-family="Microsoft YaHei,Microsoft YaHei_MSFontService,sans-serif" font-weight="700" font-size="48" transform="matrix(1 0 0 0.998677 88.5204 151)">&lt;</text><path d="" fill="#1F2328" transform="matrix(1 0 0 0.998677 125.028 151)"/><path d="M50.25-32.9531C51.2473-32.9531 52.1903-32.7627 53.079-32.3818 53.9676-32.001 54.7361-31.4864 55.3843-30.8383 56.0325-30.1901 56.5458-29.4243 56.9244-28.5408 57.3029-27.6574 57.4922-26.7219 57.4922-25.7344L57.4922-6.375C57.4922-4.87329 57.2941-3.41516 56.898-2.00061 56.5019-0.58606 55.947 0.730652 55.2334 1.94952 54.5198 3.1684 53.6641 4.27667 52.6664 5.27435 51.6688 6.27203 50.559 7.12854 49.337 7.84387 48.1151 8.5592 46.7991 9.11432 45.3889 9.50922 43.9788 9.90411 42.5132 10.1016 40.9922 10.1016 39.9917 10.1016 39.0012 10.0125 38.0208 9.83423 37.0403 9.65601 36.0893 9.40002 35.1678 9.06628 34.2463 8.73254 33.3581 8.30762 32.5032 7.7915 31.6484 7.27539 30.855 6.67578 30.123 5.99268 29.0598 5.00757 28.0233 4.01788 27.0134 3.02362 26.0035 2.02936 25.2568 1.07617 24.7734 0.164062 25.2578 0.500488 25.5 1.1333 25.5 2.0625 25.5 2.69604 25.3771 3.29822 25.1312 3.86902 24.8854 4.43982 24.5525 4.93518 24.1326 5.3551 23.7126 5.77502 23.2114 6.10858 22.6287 6.35577 22.0461 6.60297 21.4329 6.72656 20.7891 6.72656 18.75 6.72656 16.8303 6.33905 15.0298 5.56403 13.2294 4.789 11.6619 3.73419 10.3273 2.3996 8.99274 1.065 7.93787-0.502563 7.16272-2.3031 6.38757-4.10364 6-6.02344 6-8.0625 6-8.70605 6.12189-9.31085 6.36566-9.87689 6.60944-10.4429 6.94086-10.9355 7.35992-11.3546 7.77899-11.7736 8.28058-12.1071 8.86469-12.3549 9.44879-12.6027 10.0564-12.7266 10.6875-12.7266 11.26-12.7266 11.5959-12.6328 11.6953-12.4453 11.0994-12.5088 10.6027-12.959 10.2054-13.7959 9.80804-14.6328 9.60938-15.5342 9.60938-16.5 9.60938-17.2034 9.71558-17.8862 9.92798-18.5486 10.1404-19.2109 10.4326-19.7219 10.8047-20.0815 10.3755-20.5879 10.0299-21.1971 9.76794-21.9093 9.50598-22.6215 9.375-23.4121 9.375-24.2812 9.375-25.093 9.5069-25.8658 9.77069-26.5997 10.0345-27.3336 10.4027-28.0086 10.8754-28.6247 11.348-29.2408 11.9082-29.773 12.5559-30.2214 13.2036-30.6697 13.8247-30.9714 14.4192-31.1265 14.574-31.7327 14.879-32.3687 15.3342-33.0346 15.7894-33.7005 16.3239-34.2657 16.9376-34.7302 17.5514-35.1946 18.2375-35.5576 18.9961-35.8189 19.7546-36.0803 20.532-36.2109 21.3281-36.2109 22.0032-36.2109 22.5499-36.1328 22.9684-35.9766 23.5953-36.7522 24.3708-37.3836 25.2947-37.8708 26.2187-38.358 27.2793-38.6016 28.4766-38.6016 29.199-38.6016 29.9067-38.493 30.5999-38.2758 31.293-38.0587 31.797-37.7766 32.1119-37.4297L32.1328-37.4956C31.8979-37.7207 31.6947-38.0736 31.5231-38.5543 31.3514-39.035 31.2656-39.5352 31.2656-40.0547 31.2656-40.6924 31.3883-41.3004 31.6337-41.8788 31.879-42.4572 32.2112-42.9558 32.6301-43.3748 33.0491-43.7937 33.5445-44.1263 34.1164-44.3727 34.6883-44.619 35.3005-44.7422 35.9531-44.7422 37.7358-44.7422 39.4438-44.4334 41.077-43.8159 42.7101-43.1983 44.1735-42.3438 45.4671-41.2524 46.7607-40.1609 47.8446-38.8773 48.7189-37.4013 49.5931-35.9254 50.1685-34.4348 50.4448-32.9297 50.1909-32.9297 50.0836-32.9336 50.1227-32.9414 50.1619-32.9492 50.2043-32.9531 50.25-32.9531Z" transform="matrix(1 0 0 0.998677 125.028 151)"/><path d="M50.2734-29.5781C50.8042-29.5781 51.3068-29.4732 51.7811-29.2634 52.2555-29.0535 52.6632-28.7781 53.0043-28.437 53.3453-28.0959 53.6161-27.6885 53.8165-27.2148 54.017-26.741 54.1172-26.2476 54.1172-25.7344L54.1172-6.375C54.1172-4.56909 53.7716-2.86914 53.0804-1.27515 52.3893 0.318848 51.4542 1.70532 50.2753 2.88428 49.0963 4.06323 47.7099 4.99835 46.116 5.68964 44.5222 6.38092 42.8142 6.72656 40.9922 6.72656 40.1992 6.72656 39.417 6.65894 38.6455 6.52368 37.874 6.38843 37.1174 6.18372 36.3755 5.90955 35.6337 5.63538 34.9183 5.29565 34.2292 4.89038 33.5401 4.48511 33.1851 4.05029 33.1641 3.58594L13.853-14.3716C13.2583-14.9663 12.9609-15.6758 12.9609-16.5 12.9609-16.9099 13.0403-17.2969 13.199-17.6611 13.3577-18.0252 13.5731-18.3387 13.8452-18.6017 14.1172-18.8646 14.437-19.0762 14.8044-19.2363 15.1719-19.3965 15.5574-19.4766 15.9609-19.4766 16.405-19.4766 16.7903-19.402 17.1169-19.2528 17.4434-19.1036 17.7622-18.8994 18.0732-18.6401 19.4846-17.4692 20.8141-16.2327 22.0616-14.9306 23.3092-13.6285 24.5771-12.3643 25.8655-11.1379 25.9399-11.0637 25.9853-11.0209 26.0015-11.0094 26.0178-10.9979 26.0303-10.9922 26.0391-10.9922 26.0469-10.9922 26.0762-11.0149 26.127-11.0603 26.1777-11.1057 26.2031-11.1221 26.2031-11.1094 26.2031-11.1055 26.1833-11.1252 26.1438-11.1687 26.1042-11.2122 26.2229-11.2236 26.4998-11.2031 23.9524-13.5303 21.5955-15.8044 19.429-18.0256 17.2625-20.2468 15.0674-22.5612 12.8438-24.9686 13.084-25.9862 13.5484-26.7588 14.237-27.2866 14.9256-27.8143 15.7034-28.0781 16.5703-28.0781 17.124-28.0781 17.6153-27.9799 18.0441-27.7833 18.473-27.5868 18.8849-27.3179 19.2799-26.9766 20.2694-26.115 21.244-25.2202 22.2036-24.2921 23.1631-23.364 23.9759-22.4504 24.6418-21.5515 25.3077-20.6526 26.2457-19.7015 27.4559-18.6984 28.6661-17.6952 29.7375-16.7363 30.6702-15.8218 30.7764-15.7183 30.8316-15.6648 30.8359-15.6614 30.8401-15.658 30.8428-15.6562 30.8438-15.6562 30.8564-15.6562 30.887-15.6766 30.9353-15.7172 30.9836-15.7579 31.0078-15.7688 31.0078-15.75 31.0078-15.6445 31.0142-15.5854 31.0269-15.5728 31.0395-15.5601 31.0371-15.5625 31.0195-15.5801 30.1758-16.5698 29.2988-17.5571 28.3887-18.5418 27.4785-19.5266 26.9141-20.3303 26.6953-20.9531 24.7939-22.4727 23.1964-23.9172 21.9025-25.2867 20.6087-26.6562 19.1829-28.1418 17.625-29.7437 17.8811-30.7515 18.3396-31.5188 19.0005-32.0457 19.6614-32.5725 20.4373-32.8359 21.3281-32.8359 21.8818-32.8359 22.3731-32.7377 22.8019-32.5411 23.2308-32.3446 23.6854-32.0375 24.1659-31.6198 24.4711-31.338 24.8124-30.9968 25.19-30.596 25.5676-30.1952 25.979-29.7808 26.4243-29.3525 28.0425-27.7529 29.6038-26.2668 31.1083-24.8941 32.6129-23.5214 34.0697-22.1379 35.4789-20.7437 35.5721-20.6504 35.6333-20.5878 35.6624-20.5558 35.6914-20.5238 35.6946-20.5078 35.6719-20.5078 35.665-20.5078 35.679-20.5251 35.7136-20.5598 35.7483-20.5945 35.7656-20.6084 35.7656-20.6016 35.7656-20.5288 35.6407-20.6382 35.3908-20.9297 35.1409-21.2212 34.8214-21.5948 34.4323-22.0507 34.0431-22.5065 33.5052-23.0779 32.8185-23.7649 32.1319-24.4519 31.4436-25.1897 30.7537-25.9783 30.0637-26.7668 29.4165-27.4387 28.812-27.9939 28.2075-28.5491 27.6318-29.1079 27.085-29.6704 26.5381-30.2329 26.0693-30.7128 25.6787-31.11 25.2881-31.5072 24.9785-31.8398 24.75-32.1079 25.0073-33.134 25.4661-33.9103 26.1264-34.4368 26.7867-34.9633 27.5701-35.2266 28.4766-35.2266 28.9939-35.2266 29.4911-35.1276 29.9681-34.9296 30.4452-34.7316 30.8602-34.4561 31.2133-34.103L46.1664-19.1499C46.288-19.0283 46.3748-18.9066 46.4269-18.7848 46.4791-18.663 46.5173-18.5836 46.5417-18.5468L46.4297-18.2109 46.4297-25.7344C46.4297-26.2627 46.5289-26.7614 46.7274-27.2303 46.9259-27.6993 47.1955-28.1042 47.5362-28.4449 47.8769-28.7856 48.2862-29.0596 48.7641-29.267 49.242-29.4744 49.7451-29.5781 50.2734-29.5781Z" fill="#FFC83D" transform="matrix(1 0 0 0.998677 125.028 151)"/><path d="M13.0767-25.5703 27.0414-12.0718C27.3107-11.8025 27.4453-11.4895 27.4453-11.1328 27.4453-10.7625 27.3071-10.4511 27.0308-10.1988 26.7544-9.94647 26.4395-9.82031 26.0859-9.82031 25.7305-9.82031 25.4228-9.9502 25.1631-10.21L13.8428-21.5068C13.488-21.8616 13.2133-22.2823 13.0186-22.769 12.8239-23.2557 12.7266-23.7598 12.7266-24.2812 12.7266-24.5947 12.8433-25.0244 13.0767-25.5703ZM17.8909-30.3281 31.7992-16.8296C32.0685-16.5603 32.2031-16.2473 32.2031-15.8906 32.2031-15.5203 32.0649-15.2089 31.7886-14.9566 31.5122-14.7043 31.1973-14.5781 30.8438-14.5781 30.4883-14.5781 30.1807-14.708 29.9209-14.9678L18.6006-26.2881C18.2656-26.623 17.9958-27.0308 17.7913-27.5112 17.5867-27.9917 17.4844-28.4775 17.4844-28.9688 17.4844-29.335 17.6199-29.7881 17.8909-30.3281ZM25.0397-32.7188 36.557-21.5874C36.8263-21.3181 36.9609-21.0051 36.9609-20.6484 36.9609-20.3025 36.8287-19.9973 36.5641-19.7327 36.2996-19.4682 35.9866-19.3359 35.625-19.3359 35.2695-19.3359 34.9619-19.4658 34.7021-19.7256L25.749-28.6787C25.3938-29.0339 25.1229-29.4471 24.9362-29.9182 24.7496-30.3892 24.6562-30.8853 24.6562-31.4062 24.6562-31.5811 24.6649-31.7461 24.6821-31.9014 24.6993-32.0566 24.8185-32.3291 25.0397-32.7188ZM40.6875-7.99219C40.6875-7.16357 40.8086-6.43738 41.0508-5.8136 41.293-5.18982 41.561-4.65015 41.855-4.19458 42.1489-3.73901 42.4419-3.32989 42.7339-2.96722 43.0259-2.60455 43.1719-2.29517 43.1719-2.03906 43.1719-1.69312 43.0396-1.38788 42.7751-1.12335 42.5106-0.858826 42.1975-0.726562 41.8359-0.726562 41.6074-0.726562 41.4271-0.766235 41.2949-0.845581 41.1627-0.924927 41.0581-0.996582 40.9812-1.06055 40.4983-1.48999 40.0778-1.98364 39.7198-2.5415 39.3618-3.09936 39.0615-3.68134 38.8191-4.28741 38.5767-4.89349 38.39-5.51971 38.259-6.16608 38.128-6.81244 38.0625-7.42895 38.0625-8.01562 38.0625-9.2981 38.3048-10.543 38.7894-11.7504 39.274-12.9578 39.9844-14.0049 40.9204-14.8916L45.7606-19.3594 47.3906-17.7389 42.7603-13.0225C42.0999-12.3762 41.5893-11.6115 41.2286-10.7283 40.8679-9.84515 40.6875-8.93311 40.6875-7.99219Z" fill="#D48C00" transform="matrix(1 0 0 0.998677 125.028 151)"/><path d="M35.9531-36.3281C36.8271-36.3281 37.6519-36.1577 38.4272-35.8169 39.2026-35.4761 39.8777-35.014 40.4526-34.4306 41.0274-33.8472 41.4837-33.1713 41.8215-32.4029 42.1592-31.6345 42.3281-30.8179 42.3281-29.9531 42.3281-29.5916 42.1998-29.2824 41.9431-29.0257 41.6863-28.769 41.3694-28.6406 40.9922-28.6406 40.6367-28.6406 40.3291-28.7705 40.0693-29.0303 39.8096-29.29 39.6797-29.5977 39.6797-29.9531 39.6797-30.4668 39.5836-30.9501 39.3915-31.403 39.1993-31.8558 38.9299-32.2556 38.5833-32.6023 38.2366-32.949 37.8385-33.2191 37.389-33.4127 36.9396-33.6063 36.4609-33.7031 35.9531-33.7031 35.582-33.7031 35.2705-33.8291 35.0186-34.0811 34.7666-34.333 34.6406-34.6445 34.6406-35.0156 34.6406-35.3818 34.7678-35.6921 35.0222-35.9465 35.2766-36.2009 35.5869-36.3281 35.9531-36.3281ZM35.9531-41.3672C37.5139-41.3672 38.9926-41.0632 40.389-40.4553 41.7855-39.8474 42.9988-39.0284 44.029-37.9982 45.0591-36.9681 45.877-35.7576 46.4824-34.3667 47.0879-32.9758 47.3906-31.5046 47.3906-29.9531 47.3906-29.5916 47.2623-29.2824 47.0056-29.0257 46.7488-28.769 46.4319-28.6406 46.0547-28.6406 45.6836-28.6406 45.3721-28.7666 45.1201-29.0186 44.8682-29.2705 44.7422-29.582 44.7422-29.9531 44.7422-31.1641 44.5125-32.3029 44.0532-33.3697 43.5938-34.4365 42.965-35.369 42.1668-36.1672 41.3686-36.9654 40.4362-37.5941 39.3695-38.0533 38.3029-38.5126 37.1641-38.7422 35.9531-38.7422 35.582-38.7422 35.2705-38.8682 35.0186-39.1201 34.7666-39.3721 34.6406-39.6836 34.6406-40.0547 34.6406-40.4209 34.7678-40.7312 35.0222-40.9856 35.2766-41.24 35.5869-41.3672 35.9531-41.3672ZM22.125-3C22.125-2.63843 21.9966-2.32928 21.7399-2.07257 21.4832-1.81586 21.1663-1.6875 20.7891-1.6875 19.9058-1.6875 19.0756-1.85645 18.2985-2.19434 17.5214-2.53223 16.8486-2.98535 16.2803-3.55371 15.7119-4.12207 15.2588-4.7948 14.9209-5.5719 14.583-6.349 14.4141-7.1792 14.4141-8.0625 14.4141-8.42871 14.5413-8.73901 14.7957-8.99341 15.05-9.2478 15.3604-9.375 15.7266-9.375 16.0989-9.375 16.4146-9.24542 16.6738-8.98627 16.9329-8.72711 17.0625-8.41919 17.0625-8.0625 17.0625-7.51929 17.1583-7.02527 17.35-6.58044 17.5416-6.13562 17.8096-5.74109 18.1538-5.39685 18.498-5.05261 18.8899-4.78583 19.3293-4.5965 19.7688-4.40717 20.2554-4.3125 20.7891-4.3125 21.1614-4.3125 21.4771-4.18292 21.7363-3.92377 21.9954-3.66461 22.125-3.35669 22.125-3ZM22.125 2.0625C22.125 2.40845 21.9927 2.71368 21.7282 2.97821 21.4637 3.24274 21.1506 3.375 20.7891 3.375 19.2026 3.375 17.7162 3.07324 16.3297 2.46973 14.9432 1.86621 13.7352 1.04962 12.7055 0.0199585 11.6758-1.0097 10.8633-2.21783 10.268-3.60443 9.67267-4.99103 9.375-6.47705 9.375-8.0625 9.375-8.42871 9.5022-8.73901 9.75659-8.99341 10.011-9.2478 10.3213-9.375 10.6875-9.375 11.0598-9.375 11.3755-9.24542 11.6347-8.98627 11.8939-8.72711 12.0234-8.41919 12.0234-8.0625 12.0234-6.83179 12.2522-5.68524 12.7097-4.62286 13.1672-3.56049 13.7946-2.62683 14.5919-1.8219 15.3891-1.01697 16.316-0.387085 17.3725 0.067749 18.429 0.522583 19.5679 0.75 20.7891 0.75 21.1614 0.75 21.4771 0.879578 21.7363 1.13873 21.9954 1.39789 22.125 1.70581 22.125 2.0625Z" fill="#31D2F7" transform="matrix(1 0 0 0.998677 125.028 151)"/><text fill="#1F2328" font-family="Microsoft YaHei,Microsoft YaHei_MSFontService,sans-serif" font-weight="700" font-size="48" transform="matrix(1 0 0 0.998677 200.712 151)">动手学<tspan font-size="48" x="158.368" y="0">Ollama</tspan></text><path d="" fill="#1F2328" transform="matrix(1 0 0 0.998677 543.621 151)"/><path d="M49.8047 10.1016 49.8047 3.49219 47.7642 10.1016 36.3984 10.1016 41.3672-2.90771 41.3672-3.51562C41.1685-3.42187 40.7622-3.375 40.1484-3.375L33.9141-3.375 33.9141 1.10486 32.2266 2.79236 32.2266 10.1016 21.1641 10.1016 21.1641-4.15063C20.5513-4.38818 19.9028-4.75946 19.2186-5.26447 18.5344-5.76947 17.9288-6.34723 17.4018-6.99774 16.8748-7.64825 16.4379-8.36591 16.0909-9.1507 15.744-9.93549 15.5054-10.7515 15.375-11.5986L13.2795-25.2656 12.375-25.2656C11.4917-25.2656 10.6615-25.4346 9.8844-25.7725 9.1073-26.1103 8.43457-26.5635 7.86621-27.1318 7.29785-27.7002 6.84473-28.3729 6.50684-29.15 6.16895-29.9271 6-30.7573 6-31.6406L6-33.2212 11.0625-38.2837 11.0625-40.3125C11.0625-40.9263 11.1808-41.5005 11.4175-42.0353 11.6542-42.5701 11.9705-43.0354 12.3662-43.4312 12.762-43.8269 13.23-44.1443 13.7703-44.3835 14.3105-44.6226 14.8845-44.7422 15.4922-44.7422 16.0994-44.7422 16.6592-44.6172 17.1716-44.3672 17.656-44.6172 18.2134-44.7422 18.8438-44.7422 19.4512-44.7422 20.0228-44.6261 20.5585-44.3939 21.0943-44.1617 21.6243-43.6957 22.1484-42.9957L22.5703-42.6215C22.8843-42.5001 23.2224-42.2502 23.5847-41.8718 23.947-41.4934 24.2664-41.0822 24.5429-40.6382 24.8194-40.1943 25.0425-39.7132 25.2123-39.195 25.3821-38.6768 25.4744-38.1298 25.489-37.5538 25.6638-37.3041 25.8535-37.0116 26.0579-36.6764 26.2624-36.3412 26.413-36.0499 26.5096-35.8026L30.405-26.2266C33.1038-26.2266 35.8945-26.2227 38.7773-26.2148 41.6602-26.207 44.5022-26.2031 47.3035-26.2031 47.873-26.7014 48.5727-27.1072 49.4024-27.4206 50.2321-27.7339 51.085-27.8906 51.9609-27.8906 52.9426-27.8906 53.8778-27.7002 54.7665-27.3193 55.6551-26.9385 56.4236-26.4239 57.0718-25.7758 57.72-25.1276 58.2333-24.3618 58.6119-23.4783 58.9904-22.5949 59.1797-21.6672 59.1797-20.6953 59.1797-19.6462 58.9609-18.6692 58.5234-17.7642 58.7336-17.2407 58.8956-16.6422 59.0092-15.9684 59.1229-15.2947 59.1797-14.6204 59.1797-13.9453L59.1797-8.78503 60.8672-7.09753 60.8672 10.1016Z" transform="matrix(1 0 0 0.998677 543.621 151)"/><path d="M50.7656-14.4141 50.7656-5.44812 45.5376 6.72656 41.3672 6.72656 44.7422-2.2522 44.7422-14.4141ZM48.1172-20.6953C48.1172-21.231 48.2199-21.731 48.4254-22.1955 48.6308-22.66 48.9037-23.0624 49.244-23.4027 49.5843-23.743 49.9918-24.0136 50.4662-24.2144 50.9407-24.4152 51.439-24.5156 51.9609-24.5156 52.4834-24.5156 52.9842-24.4142 53.4635-24.2115 53.9427-24.0087 54.3525-23.7372 54.6929-23.3969 55.0332-23.0565 55.3036-22.6495 55.504-22.1757 55.7045-21.702 55.8047-21.2085 55.8047-20.6953 55.8047-20.1772 55.7045-19.6813 55.504-19.2076 55.3036-18.7338 55.0328-18.3264 54.6918-17.9854 54.3507-17.6443 53.9457-17.3701 53.4769-17.1627 53.008-16.9553 52.5027-16.8516 51.9609-16.8516 51.4172-16.8516 50.912-16.9484 50.4452-17.1422 49.9784-17.3359 49.5706-17.6072 49.2217-17.9561 48.8728-18.3049 48.6015-18.7127 48.4078-19.1794 48.214-19.6461 48.1172-20.1514 48.1172-20.6953ZM18.75-34.5469 14.4141-34.5469 14.4141-40.3125C14.4141-40.6179 14.5206-40.8701 14.7338-41.0689 14.9469-41.2678 15.1997-41.3672 15.4922-41.3672 15.802-41.3672 16.058-41.2661 16.2601-41.064 16.5055-40.8186 16.7641-40.5717 17.0359-40.3231 17.3078-40.0746 17.5744-39.7979 17.8358-39.4929 18.0971-39.188 18.3148-38.8524 18.4889-38.486 18.663-38.1197 18.75-37.7129 18.75-37.2656Z" fill="#8E562E" transform="matrix(1 0 0 0.998677 543.621 151)"/><path d="M55.8047-7.40222 57.4922-5.71472 57.4922 6.72656 53.1562 6.72656 53.1562-1.95117 45.8741-9.46875C45.3319-8.68872 44.5446-8.04059 43.5121-7.52435 42.4796-7.00812 41.3584-6.75 40.1484-6.75L30.5391-6.75 30.5391-0.277954 28.8516 1.40955 28.8516 6.72656 24.5391 6.72656 24.5391-6.75C24.0562-6.75 23.46-6.88513 22.7507-7.1554 22.0413-7.42566 21.4092-7.80048 20.8542-8.27985 20.2993-8.75922 19.8315-9.32886 19.4507-9.98877 19.07-10.6487 18.8208-11.365 18.7031-12.1377L16.9688-23.4111C16.8906-23.9604 16.8218-24.4477 16.7622-24.8729 16.7026-25.298 16.6462-25.7243 16.5928-26.1517 16.5395-26.579 16.4716-27.066 16.3892-27.6127 16.3068-28.1593 16.2134-28.6265 16.1089-29.0142 16.0696-29.2112 16.0209-29.3932 15.9628-29.5604 15.9047-29.7275 15.8508-29.8715 15.8013-29.9925 15.7517-30.1135 15.6772-30.301 15.5779-30.555 15.4785-30.809 15.3948-31.0312 15.3267-31.2217L13.6875-36.0732C14.3193-36.7568 14.9927-37.2476 15.7077-37.5454 16.4227-37.8433 17.1633-37.9922 17.9297-37.9922L17.7891-37.9922 17.7891-40.3125C17.7891-40.6179 17.8956-40.8701 18.1088-41.0689 18.3219-41.2678 18.5747-41.3672 18.8672-41.3672 19.1614-41.3672 19.4095-41.2661 19.6117-41.064 20.1234-40.5522 20.5399-40.1482 20.861-39.8518 21.1822-39.5554 21.4422-39.249 21.6411-38.9324 21.8399-38.6159 21.9703-38.2454 22.0322-37.821 22.0941-37.3965 22.125-36.8929 22.125-36.3102 22.3459-36.1124 22.5844-35.8301 22.8402-35.4631 23.0961-35.0962 23.3058-34.7166 23.4694-34.3242L27.4069-24.6445C27.6385-24.0862 27.9932-23.6478 28.4709-23.3293 28.9485-23.0108 29.4817-22.8516 30.0703-22.8516L46.8984-22.8516C47.8486-22.8516 48.7846-22.6979 49.7064-22.3907 50.6281-22.0834 51.5437-21.4127 52.4531-20.3785 53.4131-19.9774 54.2117-19.1603 54.8489-17.9273 55.4861-16.6943 55.8047-15.3669 55.8047-13.9453Z" fill="#BB9167" transform="matrix(1 0 0 0.998677 543.621 151)"/><path d="M22.125-32.4844C22.125-31.9583 22.0213-31.4608 21.8139-30.9919 21.6065-30.523 21.3318-30.1176 20.9899-29.7757 20.648-29.4338 20.2426-29.1591 19.7737-28.9517 19.3049-28.7443 18.7996-28.6406 18.2578-28.6406L12.375-28.6406C11.4802-28.6406 10.6912-29.0454 10.0078-29.855L10.3828-30.6555 9.375-31.604 13.8406-36.3281 18.2578-36.3281C18.7715-36.3281 19.2695-36.2235 19.7518-36.0143 20.2341-35.8051 20.6467-35.5289 20.9897-35.1859 21.3328-34.8429 21.6077-34.433 21.8146-33.9562 22.0215-33.4794 22.125-32.9888 22.125-32.4844Z" fill="#F7D7C4" transform="matrix(1 0 0 0.998677 543.621 151)"/><path d="M13.6875-32.1094C13.6875-31.2239 13.4764-30.565 13.0543-30.1328 12.6322-29.7005 12.1245-29.4844 11.5312-29.4844L10.2872-29.4844C9.67908-30.1577 9.375-31.0327 9.375-32.1094Z" fill="#383838" transform="matrix(1 0 0 0.998677 543.621 151)"/><path d="M17.4141-36.3281C17.7708-36.3281 18.0826-36.1946 18.3495-35.9277 18.6165-35.6607 18.75-35.3567 18.75-35.0156L18.75-33.3281C18.75-32.9666 18.6216-32.6574 18.3649-32.4007 18.1082-32.144 17.7913-32.0156 17.4141-32.0156 17.043-32.0156 16.7314-32.1416 16.4795-32.3936 16.2275-32.6455 16.1016-32.957 16.1016-33.3281L16.1016-35.0156C16.1016-35.3662 16.2327-35.6726 16.4949-35.9348 16.7571-36.197 17.0635-36.3281 17.4141-36.3281Z" transform="matrix(1 0 0 0.998677 543.621 151)"/><text fill="#1F2328" font-family="Microsoft YaHei,Microsoft YaHei_MSFontService,sans-serif" font-weight="700" font-size="48" transform="matrix(1 0 0 0.998677 608.302 151)">/&gt;</text><path d="" fill="#1F2328" transform="matrix(1 0 0 0.998677 252.47 205)"/><path d="M27.9023-3.54932 29.6926-1.77026C29.9284-1.53442 30.1109-1.2616 30.24-0.951782 30.369-0.641968 30.4336-0.324707 30.4336 0 30.4336 0.348511 30.3662 0.677155 30.2314 0.985931 30.0965 1.29471 29.918 1.56021 29.6958 1.78244 29.4735 2.00467 29.2061 2.18307 28.8936 2.31766 28.581 2.45224 28.2506 2.51953 27.9023 2.51953L5.51953 2.51953C5.1637 2.51953 4.83252 2.45261 4.526 2.31876 4.21948 2.18491 3.95544 2.0072 3.73389 1.78564 3.51233 1.56409 3.33463 1.30005 3.20078 0.99353 3.06693 0.687012 3 0.355835 3 0 3-0.332031 3.06409-0.651855 3.19226-0.959473 3.32043-1.26709 3.50098-1.53735 3.73389-1.77026L5.53125-3.55627 5.53125-15.3984C5.53125-15.7831 5.60349-16.1411 5.74796-16.4724 5.89243-16.8038 6.08862-17.0956 6.33655-17.3479 6.58447-17.6001 6.87582-17.7992 7.2106-17.9452 7.54538-18.0911 7.90356-18.1641 8.28516-18.1641L25.1367-18.1641C25.5188-18.1641 25.8783-18.0906 26.2152-17.9438 26.5521-17.7969 26.8448-17.5971 27.0934-17.3444 27.3419-17.0916 27.5389-16.7985 27.6843-16.4648 27.8296-16.1312 27.9023-15.7758 27.9023-15.3984Z" transform="matrix(1 0 0 0.998677 252.47 205)"/><path d="M26.2266-2.85699 28.4973-0.574951C28.6631-0.409058 28.7461-0.217407 28.7461 0 28.7461 0.235474 28.6643 0.434967 28.5008 0.59848 28.3373 0.761993 28.1378 0.84375 27.9023 0.84375L5.51953 0.84375C5.28711 0.84375 5.09033 0.763184 4.9292 0.602051 4.76807 0.440918 4.6875 0.240234 4.6875 0 4.6875-0.222168 4.76807-0.413818 4.9292-0.574951L7.20703-2.86432 7.20703-15.3984C7.20703-15.6909 7.3136-15.9437 7.52673-16.1569 7.73987-16.37 7.99268-16.4766 8.28516-16.4766L25.1367-16.4766C25.4322-16.4766 25.6878-16.3688 25.9033-16.1533 26.1188-15.9378 26.2266-15.6862 26.2266-15.3984Z" fill="#CCCCCC" transform="matrix(1 0 0 0.998677 252.47 205)"/><path d="M25.3828-3.375 8.05078-3.375 8.05078-15.6328 25.3828-15.6328Z" fill="#1F1F1F" transform="matrix(1 0 0 0.998677 252.47 205)"/><path d="M24.8188-3 26.2941-1.51245C26.3741-1.4325 26.4141-1.3385 26.4141-1.23047 26.4141-0.972656 26.2812-0.84375 26.0156-0.84375L19.9102-0.84375 20.3203 0 13.1016 0 13.5234-0.84375 7.40625-0.84375C7.28772-0.84375 7.19168-0.885132 7.11813-0.967896 7.04459-1.05066 7.00781-1.14209 7.00781-1.24219 7.00781-1.35022 7.09729-1.49881 7.27625-1.68796 7.4552-1.87711 7.61142-2.03842 7.7449-2.17191 7.87839-2.30539 8.02521-2.44635 8.18536-2.59479 8.34552-2.74323 8.48645-2.8783 8.60815-3Z" fill="#A6A6A6" transform="matrix(1 0 0 0.998677 252.47 205)"/><text fill="#1F2328" font-family="Microsoft YaHei,Microsoft YaHei_MSFontService,sans-serif" font-weight="700" font-size="24" transform="matrix(1 0 0 0.998677 284.81 205)">CPU<tspan font-size="24" x="50.6779" y="0">玩转大模型部署</tspan></text></g></svg>